<svg width="139" height="50" viewBox="0 0 139 50" fill="none" xmlns="http://www.w3.org/2000/svg">
<path d="M65.7939 4.93597V2.55997H77.7939V4.93597H73.1619V19H70.4739V4.93597H65.7939Z" fill="white"/>
<path d="M83.3948 13.144V19H80.7308V2.55997H86.9708C90.6828 2.55997 92.5388 4.30397 92.5388 7.79197C92.5388 10.128 91.6428 11.712 89.8508 12.544L92.5628 19H89.6348L87.2588 13.144H83.3948ZM89.8028 7.81597C89.8028 5.84797 88.8588 4.86397 86.9708 4.86397H83.3948V10.84H87.0188C87.9788 10.84 88.6828 10.568 89.1308 10.024C89.5788 9.46397 89.8028 8.72797 89.8028 7.81597Z" fill="white"/>
<path d="M94.7066 19L98.7626 2.55997H104.067L108.147 19H105.459L104.571 15.472H98.2586L97.3706 19H94.7066ZM100.827 4.79197L98.7866 13.12H104.043L102.027 4.79197H100.827Z" fill="white"/>
<path d="M111.21 19V2.55997H115.866L120.858 16.648H121.218V2.55997H123.882V19H119.322L114.21 4.88797H113.874V19H111.21Z" fill="white"/>
<path d="M133.207 4.62397C131.175 4.62397 130.159 5.33597 130.159 6.75997C130.159 7.49597 130.399 8.02397 130.879 8.34397C131.359 8.64797 132.415 9.03197 134.047 9.49597C135.695 9.94397 136.855 10.488 137.527 11.128C138.199 11.752 138.535 12.744 138.535 14.104C138.535 15.832 138.039 17.128 137.047 17.992C136.071 18.84 134.735 19.264 133.039 19.264C131.679 19.264 130.175 19.104 128.527 18.784L127.663 18.616L127.927 16.48C130.087 16.768 131.735 16.912 132.871 16.912C134.855 16.912 135.847 16.032 135.847 14.272C135.847 13.584 135.623 13.08 135.175 12.76C134.727 12.424 133.719 12.064 132.151 11.68C130.583 11.28 129.415 10.736 128.647 10.048C127.879 9.35997 127.495 8.27197 127.495 6.78397C127.495 5.29597 127.975 4.17597 128.935 3.42397C129.911 2.65597 131.255 2.27197 132.967 2.27197C134.199 2.27197 135.655 2.41597 137.335 2.70397L138.175 2.84797L137.959 5.00797C135.719 4.75197 134.135 4.62397 133.207 4.62397Z" fill="white"/>
<path d="M81.4689 48H72.2529V31.56H74.9169V45.624H81.4689V48Z" fill="white"/>
<path d="M84.3636 48V31.56H87.0276V48H84.3636Z" fill="white"/>
<path d="M98.2249 41.712V39.36H102.905V47.712C102.473 47.824 101.593 47.944 100.265 48.072C98.9529 48.2 98.0009 48.264 97.4089 48.264C94.9129 48.264 93.1929 47.576 92.2489 46.2C91.3049 44.824 90.8329 42.672 90.8329 39.744C90.8329 36.8 91.3129 34.656 92.2729 33.312C93.2489 31.968 94.9289 31.296 97.3129 31.296C98.7209 31.296 100.305 31.456 102.065 31.776L102.905 31.944L102.809 34.056C100.873 33.8 99.1369 33.672 97.6009 33.672C96.0649 33.672 95.0089 34.104 94.4329 34.968C93.8729 35.832 93.5929 37.432 93.5929 39.768C93.5929 42.104 93.8569 43.72 94.3849 44.616C94.9289 45.496 96.0169 45.936 97.6489 45.936C98.8169 45.936 99.6889 45.864 100.265 45.72V41.712H98.2249Z" fill="white"/>
<path d="M116.736 48V40.896H109.632V48H106.968V31.56H109.632V38.568H116.736V31.56H119.424V48H116.736Z" fill="white"/>
<path d="M122.322 33.936V31.56H134.322V33.936H129.69V48H127.002V33.936H122.322Z" fill="white"/>
<path d="M27.4076 24.9983L27.7721 24.3654L35.3571 11.2333L28.8722 0L14.4346 24.9983L28.8722 50L35.3571 38.7667L27.7721 25.6346L27.4076 24.9983Z" fill="white"/>
<path d="M19.8224 36.8646L14.4344 46.1959L2.19696 24.9983L14.4344 3.8041L19.8224 13.1321L20.9225 11.2333L14.4344 0L0 24.9983L14.4344 50L20.9225 38.7667L19.8224 36.8646Z" fill="white"/>
<path d="M42.9785 21.9465L42.9884 21.9531V17.9204L33.8857 33.6835L35.0422 35.6883L42.9785 21.9465Z" fill="white"/>
<path d="M42.9782 16.4324L42.9881 16.439V12.4062L32.2949 30.9297L33.4514 32.9311L42.9782 16.4324Z" fill="white"/>
<path d="M30.2671 27.4175L42.9784 5.40814L42.9883 5.41476V0.550293L28.8721 24.9986L30.2671 27.4175Z" fill="white"/>
<path d="M42.9783 10.9186L42.9883 10.9252V6.89575L30.7012 28.1728L31.8576 30.1743L42.9783 10.9186Z" fill="white"/>
<path d="M43.6211 0.550049V49.4499L57.7407 24.9983L43.6211 0.550049Z" fill="white"/>
<path d="M42.9782 27.457L42.9882 27.4636V23.4309L35.4761 36.4404L36.6325 38.4418L42.9782 27.457Z" fill="white"/>
<path d="M42.9781 32.9709L42.988 32.9776V28.9448L37.0698 39.1973L38.2263 41.1988L42.9781 32.9709Z" fill="white"/>
<path d="M42.9885 44.2009L41.4741 46.8254L42.9885 49.4498V44.2009Z" fill="white"/>
<path d="M41.0396 46.07L42.9781 42.7132L42.9881 42.7198V39.9695L40.251 44.7113L41.0396 46.07Z" fill="white"/>
<path d="M42.9784 38.4818L42.9883 38.4884V34.459L38.6606 41.9545L39.8171 43.956L42.9784 38.4818Z" fill="white"/>
</svg>
